<?xml version="1.0" encoding="iso-8859-1"?>
<!-- Generator: Adobe Illustrator 19.0.0, SVG Export Plug-In . SVG Version: 6.00 Build 0)  -->
<svg version="1.1" id="Capa_1" xmlns="http://www.w3.org/2000/svg" xmlns:xlink="http://www.w3.org/1999/xlink" x="0px" y="0px"
	 viewBox="0 0 480 480" style="enable-background:new 0 0 480 480;" xml:space="preserve">
<circle style="fill:#60A867;" cx="240.005" cy="240" r="232"/>
<path style="fill:#5EB8AB;" d="M240.005,8v464c128.13,0,232-103.87,232-232S368.135,8,240.005,8z"/>
<path style="fill:#E0E0E0;" d="M240.018,0l-0.009,0h-0.004c-132.548,0-240,107.452-240,240s107.452,240,240,240h0.004l0.009,0
	c132.548-0.012,239.99-107.474,239.977-240.022C479.983,107.447,372.549,0.013,240.018,0L240.018,0z M232.009,17.709v444.582
	c-31.73-12.905-64.004-100.549-64.004-222.291S200.278,30.614,232.009,17.709z M248.009,462.288V17.712
	C279.737,30.628,312.005,118.268,312.005,240S279.737,449.372,248.009,462.288L248.009,462.288z M152.005,240
	c0,86.668,17.783,175.456,49.05,216.511C136.057,431.091,88.009,343.674,88.009,240S136.057,48.909,201.055,23.489
	C169.788,64.544,152.005,153.332,152.005,240z M328.005,240c0-86.672-17.784-175.463-49.053-216.516
	C343.955,48.898,392.009,136.319,392.009,240s-48.054,191.102-113.057,216.516C310.221,415.463,328.005,326.672,328.005,240z
	 M16.005,240C16.112,148.872,71.34,66.865,155.742,32.506C105.725,74.123,72.009,151.519,72.009,240s33.716,165.876,83.733,207.493
	C71.34,413.134,16.112,331.128,16.005,240z M324.282,447.487c50.014-41.618,83.726-119.011,83.726-207.487
	S374.296,74.13,324.281,32.512c114.59,46.506,169.782,177.103,123.276,291.694C424.807,380.265,380.34,424.732,324.282,447.487
	L324.282,447.487z"/>
<g>
</g>
<g>
</g>
<g>
</g>
<g>
</g>
<g>
</g>
<g>
</g>
<g>
</g>
<g>
</g>
<g>
</g>
<g>
</g>
<g>
</g>
<g>
</g>
<g>
</g>
<g>
</g>
<g>
</g>
</svg>
