<?xml version="1.0" encoding="iso-8859-1"?>
<!-- Generator: Adobe Illustrator 19.0.0, SVG Export Plug-In . SVG Version: 6.00 Build 0)  -->
<svg version="1.1" id="Capa_1" xmlns="http://www.w3.org/2000/svg" xmlns:xlink="http://www.w3.org/1999/xlink" x="0px" y="0px"
	 viewBox="0 0 480 480" style="enable-background:new 0 0 480 480;" xml:space="preserve">
<circle style="fill:#60A867;" cx="240" cy="240" r="232"/>
<path style="fill:#5EB8AB;" d="M8,240c0,128.13,103.87,232,232,232s232-103.87,232-232H8z"/>
<path style="fill:#DCE1E2;" d="M240,0C107.452,0,0,107.452,0,240s107.452,240,240,240s240-107.452,240-240
	C479.85,107.514,372.486,0.15,240,0z M340.689,40H139.311C202.623,8,277.377,8,340.689,40z M112.467,56h255.065
	c19.14,13.308,36.103,29.5,50.288,48H62.179C76.364,85.5,93.328,69.308,112.467,56z M27.939,312h424.121
	c-5.743,16.863-13.485,32.978-23.061,48H51C41.424,344.978,33.682,328.863,27.939,312L27.939,312z M23.088,296
	c-4.031-15.703-6.339-31.798-6.885-48h447.594c-0.546,16.202-2.855,32.297-6.885,48H23.088z M16.203,232
	c0.546-16.202,2.855-32.297,6.885-48h433.824c4.031,15.703,6.339,31.798,6.885,48H16.203z M27.939,168
	c5.743-16.863,13.485-32.978,23.061-48h378c9.576,15.022,17.318,31.137,23.061,48H27.939z M139.311,440h201.378
	C277.377,472,202.623,472,139.311,440L139.311,440z M367.533,424H112.467c-19.14-13.308-36.103-29.5-50.288-48h355.642
	C403.636,394.5,386.672,410.692,367.533,424z"/>
<g>
</g>
<g>
</g>
<g>
</g>
<g>
</g>
<g>
</g>
<g>
</g>
<g>
</g>
<g>
</g>
<g>
</g>
<g>
</g>
<g>
</g>
<g>
</g>
<g>
</g>
<g>
</g>
<g>
</g>
</svg>
