<svg id="Capa_1" enable-background="new 0 0 500.266 500.266" height="512" viewBox="0 0 500.266 500.266" width="512" xmlns="http://www.w3.org/2000/svg"><g><g><g><path d="m260.633 324.852s-33.221 71-33.221 90.779c0 18.347 14.873 33.221 33.221 33.221s33.221-14.873 33.221-33.221c0-19.779-33.221-90.779-33.221-90.779z" fill="#9ee2f8"/></g></g><g><path d="m260.633 448.852c18.347 0 33.221-14.873 33.221-33.221 0-19.779-33.221-90.779-33.221-90.779z" fill="#7ed8f6"/></g><g><path d="m381.758 87.198s-33.221 71-33.221 90.779c0 18.347 14.873 33.221 33.221 33.221s33.221-14.873 33.221-33.221c0-19.779-33.221-90.779-33.221-90.779z" fill="#7ed8f6"/></g><g><g><path d="m81.576 132s-33.221 71-33.221 90.779c0 18.347 14.873 33.221 33.221 33.221s33.221-14.873 33.221-33.221c0-19.779-33.221-90.779-33.221-90.779z" fill="#9ee2f8"/></g></g><g><g><path d="m426.633 256h30v82h-30z" fill="#9ee2f8"/></g></g><g><g><path d="m457.633 0h30v82h-30z" fill="#9ee2f8"/></g></g><g><g><path d="m245.633 78.733h30v82h-30z" fill="#beebfa"/></g></g><g><g><path d="m165.633 37.733h30v82h-30z" fill="#beebfa"/></g></g><g><g><path d="m355.633 312h30v43h-30z" fill="#9ee2f8"/></g></g><g><g><path d="m355.633 392.266h30v43h-30z" fill="#9ee2f8"/></g></g><g><path d="m457.633 447.266h30v53h-30z" fill="#9ee2f8"/></g><g><g><path d="m12.633 16.233h30v43h-30z" fill="#beebfa"/></g></g><g><g><g><path d="m149.633 259.852h30v84.233h-30z" fill="#beebfa"/></g></g></g><g><g><g><path d="m78.633 317.377h30v51.497h-30z" fill="#beebfa"/></g></g></g><g><g><g><path d="m78.633 413.503h30v79.497h-30z" fill="#beebfa"/></g></g></g><g><g><path d="m245.633 193.999h30v43h-30z" fill="#beebfa"/></g></g><g><path d="m260.633 78.733h15v82h-15z" fill="#9ee2f8"/></g><g><path d="m260.633 193.999h15v43h-15z" fill="#9ee2f8"/></g></g></svg>